<svg width="22" height="20" viewBox="0 0 22 20" fill="none" xmlns="http://www.w3.org/2000/svg">
<path fill-rule="evenodd" clip-rule="evenodd" d="M2.48939 10.0019C2.48939 4.53106 7.00689 0.100222 12.5211 0.251889C17.6019 0.392722 21.8486 4.63939 21.9894 9.72022C22.1411 15.2344 17.7102 19.7519 12.2394 19.7519C9.97523 19.7519 7.90606 18.9827 6.25939 17.6827C5.75023 17.2927 5.71773 16.5236 6.17273 16.0686C6.56273 15.6786 7.16939 15.6461 7.60273 15.9819C8.88106 16.9894 10.4952 17.5852 12.2394 17.5852C16.4644 17.5852 19.8769 14.1294 19.8227 9.89355C19.7686 5.86355 16.3777 2.47272 12.3477 2.41856C8.10106 2.36439 4.65606 5.77689 4.65606 10.0019H6.59523C7.08273 10.0019 7.32106 10.5869 6.98523 10.9227L3.96273 13.9561C3.74606 14.1727 3.41023 14.1727 3.19356 13.9561L0.171059 10.9227C-0.175607 10.5869 0.0627259 10.0019 0.550226 10.0019H2.48939ZM11.1561 6.48105C11.1561 6.03689 11.5244 5.66855 11.9686 5.66855C12.4127 5.66855 12.7811 6.03689 12.7811 6.47022V10.1536L15.9011 12.0061C16.2802 12.2336 16.4102 12.7319 16.1827 13.1219C15.9552 13.5011 15.4569 13.6311 15.0669 13.4036L11.6869 11.3994C11.3619 11.2044 11.1561 10.8469 11.1561 10.4677V6.48105Z" fill="white"/>
</svg>
